<svg width="24" height="11" viewBox="0 0 14 6" fill="none" xmlns="http://www.w3.org/2000/svg">
    <path d="M10.65 5.425C10.55 5.325 10.502 5.20417 10.506 5.0625C10.51 4.92083 10.5622 4.8 10.6625 4.7L12.075 3.2875H0.500002C0.358335 3.2875 0.239502 3.2395 0.143502 3.1435C0.0475019 3.0475 -0.000331603 2.92883 1.7301e-06 2.7875C1.7301e-06 2.64583 0.0480017 2.527 0.144002 2.431C0.240002 2.335 0.358668 2.28717 0.500002 2.2875H12.075L10.65 0.8625C10.55 0.7625 10.5 0.643666 10.5 0.506C10.5 0.368333 10.55 0.249667 10.65 0.15C10.75 0.0499999 10.8688 0 11.0065 0C11.1442 0 11.2628 0.0499999 11.3625 0.15L13.65 2.4375C13.7 2.4875 13.7355 2.54167 13.7565 2.6C13.7775 2.65833 13.7878 2.72083 13.7875 2.7875C13.7875 2.85417 13.777 2.91667 13.756 2.975C13.735 3.03333 13.6997 3.0875 13.65 3.1375L11.35 5.4375C11.2583 5.52917 11.1438 5.575 11.0065 5.575C10.8692 5.575 10.7503 5.525 10.65 5.425Z"
          fill="currentColor"/>
</svg>
